<?xml version="1.0" encoding="UTF-8" standalone="no"?>
<svg
   xmlns:dc="http://purl.org/dc/elements/1.1/"
   xmlns:cc="http://creativecommons.org/ns#"
   xmlns:rdf="http://www.w3.org/1999/02/22-rdf-syntax-ns#"
   xmlns:svg="http://www.w3.org/2000/svg"
   xmlns="http://www.w3.org/2000/svg"
   xmlns:sodipodi="http://sodipodi.sourceforge.net/DTD/sodipodi-0.dtd"
   xmlns:inkscape="http://www.inkscape.org/namespaces/inkscape"
   enable-background="new 0 0 100 100"
   id="Layer_1"
   version="1.1"
   viewBox="0 0 100 100"
   xml:space="preserve"
   inkscape:version="0.91 r13725"
   sodipodi:docname="logo.svg"
   inkscape:export-filename="C:\Users\fifti\Desktop\spreex.png"
   inkscape:export-xdpi="90"
   inkscape:export-ydpi="90"><metadata
     id="metadata3359"><rdf:RDF><cc:Work
         rdf:about=""><dc:format>image/svg+xml</dc:format><dc:type
           rdf:resource="http://purl.org/dc/dcmitype/StillImage" /><dc:title></dc:title></cc:Work></rdf:RDF></metadata><defs
     id="defs3357" /><sodipodi:namedview
     pagecolor="#ffffff"
     bordercolor="#666666"
     borderopacity="1"
     objecttolerance="10"
     gridtolerance="10"
     guidetolerance="10"
     inkscape:pageopacity="0"
     inkscape:pageshadow="2"
     inkscape:window-width="1304"
     inkscape:window-height="745"
     id="namedview3355"
     showgrid="false"
     inkscape:zoom="2"
     inkscape:cx="37.031918"
     inkscape:cy="60.060562"
     inkscape:window-x="54"
     inkscape:window-y="-8"
     inkscape:window-maximized="1"
     inkscape:current-layer="Layer_1" /><path
     style="fill:#000000;fill-opacity:1;stroke:none;stroke-width:0.69444442;stroke-miterlimit:4;stroke-dasharray:none;stroke-opacity:1"
     d="m 40.053305,95.795354 c -0.786011,-0.476249 -2.210362,-1.420559 -3.165223,-2.098471 -2.984191,-2.118653 -9.282834,-7.300899 -9.47922,-7.474255 -0.179101,-0.156138 -0.401304,-0.286984 -0.714755,-0.446682 -3.361926,-1.712827 -8.176711,-5.816729 -9.913678,-8.449964 -1.8584,-2.817324 -2.098192,-4.055094 -2.127016,-10.979326 l -0.0224,-5.381945 -0.527127,-1.128472 c -0.591706,-1.266724 -1.284175,-3.38405 -1.618208,-4.947917 -0.122372,-0.572916 -0.242333,-1.068253 -0.266579,-1.10075 -0.02425,-0.03249 -0.538331,0.360056 -1.14241,0.872336 C 9.9951608,55.577078 7.3288894,57.33885 7.2160848,57.21085 7.0046955,56.970984 3.1250122,50.051859 3.1742791,50.002593 3.2081661,49.968703 3.979551,49.717708 4.8884676,49.444819 5.7973842,49.171932 6.9327712,48.735454 7.4115495,48.474871 9.4037953,47.390555 11.10096,45.360842 11.818625,43.20426 c 0.395623,-1.188849 0.380425,-1.493554 -0.170583,-3.420104 -0.19548,-0.683478 -0.351958,-1.765575 -0.357587,-2.472823 -0.02411,-3.03021 1.970726,-10.496089 5.416094,-20.270233 0.673173,-1.909722 1.431413,-3.690972 1.45581,-3.881944 0.744629,-1.640396 1.452579,-2.823848 2.298267,-4.0887263 1.302344,-1.7462607 2.921915,-3.2813732 4.448294,-4.0011177 1.490956,-0.7030421 2.390406,-0.9252524 4.595705,-1.1353753 2.729177,-0.2600385 3.977265,0.1820702 6.02677,2.1348562 l 1.073865,1.0231873 c 1.060309,-1.1862354 0.910931,-1.0311459 1.967057,-1.8989321 l 0.67353,-0.3785455 c 1.055102,-0.5930005 3.000401,-1.1965675 4.532751,-1.4063757 2.317202,-0.3172689 4.709212,0.1064896 6.644783,1.1771615 1.836167,1.0156866 4.199912,4.7140162 5.038608,7.8834326 l 0.38178,1.44274 0.765213,0.13858 c 7.456769,1.350418 12.762358,3.853836 23.982936,11.316238 1.656607,1.156916 3.382447,2.506077 4.574003,3.835491 3.093533,3.201974 3.792068,4.968514 4.270546,10.799882 l 0.203034,2.474443 0.888354,0.501356 c 1.761641,0.994208 3.522065,3.372868 4.318049,5.834483 1.132873,3.503463 1.465457,13.169965 0.725747,21.09375 -0.669782,7.17472 -1.810737,14.627944 -2.434419,15.902704 -0.548288,1.120664 -2.221654,2.710846 -3.244798,3.083502 -0.411072,0.149724 -7.098266,2.032828 -14.860431,4.184675 -15.082158,4.181117 -15.251106,4.217259 -17.000696,3.636886 -0.456896,-0.151561 -1.285606,-0.624629 -1.841577,-1.051264 l -1.010854,-0.775698 -2.02734,0.456563 c -3.557276,0.801109 -7.482568,1.504701 -8.982835,1.753043 -2.039096,0.351819 -2.620228,-0.393647 -4.115396,-1.300741 z m 34.334777,-6.533983 c 7.954735,-2.209312 14.251012,-4.045203 14.496528,-4.226944 0.664201,-0.491674 0.999776,-1.209039 1.189092,-2.541938 0.09494,-0.668403 0.410288,-2.855903 0.700783,-4.861111 1.068958,-7.378727 1.517644,-13.82178 1.334689,-19.165875 -0.251552,-7.34774 -0.997816,-10.209323 -3.100812,-11.890193 -1.18187,-0.944637 -1.574149,-0.902604 -12.656563,1.356132 -5.41301,1.10324 -10.217698,2.131542 -10.677083,2.285113 -1.477082,0.493788 -2.712002,1.315094 -4.134375,2.749637 -1.585882,1.599452 -2.51738,3.084627 -3.113679,4.964433 -0.785547,2.476399 -0.814416,3.193465 -0.758248,18.832697 0.05051,14.063822 0.06827,14.782165 0.378141,15.293907 0.409581,0.676415 1.086062,1.102132 1.758194,1.106453 0.286458,0.0018 6.848958,-1.754198 14.583333,-3.902311 z M 48.189121,92.47242 c 1.423317,-0.287947 2.722284,-0.565924 2.886593,-0.617726 0.279337,-0.08807 0.301986,-1.156563 0.348644,-16.446946 l 0.0499,-16.352759 0.467945,-1.70034 c 0.971456,-3.529922 2.493062,-6.259896 4.873885,-8.744438 2.093064,-2.184246 4.605922,-3.784163 7.161445,-4.559637 0.665038,-0.201805 5.76372,-1.293658 11.330406,-2.42634 5.566686,-1.132682 10.152958,-2.091136 10.191719,-2.129896 0.03876,-0.03876 -0.04657,-0.926906 -0.189617,-1.97366 -0.347145,-2.54021 -0.771442,-3.360232 -2.86264,-5.532505 l -1.662903,-1.727375 -4.239875,0.213748 c -8.405946,0.423775 -16.824253,1.182558 -19.430847,1.751396 -6.033269,1.316644 -9.169337,4.185929 -9.874924,9.034875 -0.568054,3.903788 -1.029998,14.373358 -1.401769,31.769867 -0.309693,14.491677 -0.396238,19.965277 -0.315677,19.965277 0.04392,0 1.244396,-0.235593 2.667715,-0.523541 z m -8.956391,-3.2525 c 5.21e-4,-0.740018 0.05134,-2.107205 0.112991,-3.038195 0.06438,-0.97218 0.04552,-1.691114 -0.0443,-1.688963 -0.08602,0.0021 -0.468892,0.443198 -0.850837,0.98031 -0.381944,0.537112 -1.145757,1.354108 -1.697363,1.815546 l -1.002918,0.838977 1.610557,1.210047 c 0.885808,0.665526 1.669151,1.214035 1.740766,1.218906 0.07162,0.0049 0.130613,-0.596611 0.131104,-1.336628 z m -7.506372,-6.214884 c 0.353703,-0.147786 0.819945,-0.434842 1.036091,-0.637901 l 0.392994,-0.3692 0,-12.45663 0,-12.456628 -2.473958,-1.220193 c -1.360677,-0.671104 -3.819184,-1.966066 -5.463349,-2.877689 -1.644163,-0.911625 -3.054745,-1.6575 -3.134623,-1.6575 -0.07988,0 -0.6607,0.425182 -1.290715,0.944847 -1.260215,1.039484 -1.436075,1.391706 -1.621274,3.247179 -0.110877,1.110852 -0.134694,1.157738 -0.639408,1.25868 -0.288333,0.05767 -0.709789,0.104849 -0.936568,0.104849 -0.596161,0 -0.530867,0.397233 0.348598,2.12079 l 0.760924,1.491243 -0.169045,2.317248 c -0.240903,3.302268 -0.07135,8.421278 0.329796,9.957127 0.770249,2.948995 3.371834,5.612976 8.994484,9.21021 0.804993,0.515014 1.94898,0.999986 2.777777,1.177587 0.190973,0.04092 0.369262,0.08347 0.396202,0.09455 0.02694,0.01108 0.338371,-0.100778 0.692074,-0.248569 z m 8.097985,-20.304214 c 0.300337,-12.719809 0.87092,-20.94401 1.674239,-24.131944 0.424433,-1.684339 1.474387,-3.944323 2.494592,-5.36951 0.856236,-1.196129 2.587167,-2.900783 3.745603,-3.688742 2.414522,-1.64234 5.961024,-2.949198 9.809028,-3.61455 1.573329,-0.272043 8.991373,-1.003953 12.456597,-1.229045 1.026475,-0.06668 1.866319,-0.172755 1.866319,-0.235729 0,-0.157697 -3.45525,-2.114367 -5.984753,-3.389099 -2.40679,-1.212893 -5.665971,-2.353574 -8.164552,-2.857512 -5.02199,-1.012885 -11.621688,-1.112632 -16.753473,-0.25321 -5.884142,0.985419 -9.721619,3.281543 -11.423758,6.835314 -1.447306,3.021722 -2.733202,7.459439 -3.848441,13.28125 -0.852771,4.451665 -1.205297,7.084788 -0.980292,7.322107 0.268491,0.283186 5.451106,3.154905 8.179575,4.532353 1.241319,0.626672 3.194444,1.46864 4.340278,1.871043 l 2.083333,0.731639 0.06625,8.57004 c 0.07051,9.120915 0.247054,9.773972 0.439455,1.625595 z M 19.361159,48.560815 c 0.537943,-0.376831 1.068757,-0.728394 1.179585,-0.78125 0.139425,-0.0665 0.143823,-0.124246 0.01427,-0.187449 -0.130877,-0.06385 -0.09328,-0.782358 0.124916,-2.387153 0.171683,-1.262694 0.31453,-2.393377 0.317441,-2.512628 0.0029,-0.119252 -0.316628,0.09559 -0.710087,0.47743 -0.393457,0.381839 -0.780409,0.694252 -0.859893,0.694252 -0.182969,0 -0.440566,0.918101 -0.755022,2.690972 -0.328771,1.85358 -0.440011,2.690972 -0.357471,2.690972 0.0375,0 0.508317,-0.308316 1.046261,-0.685146 z m -1.709062,-8.212423 c 0.574541,-0.630794 0.750063,-1.085851 1.449578,-3.75817 1.548294,-5.91487 4.205935,-12.641521 6.430541,-16.276098 l 0.702852,-1.148326 -0.573038,-0.628321 c -1.498132,-1.642658 -3.716159,-3.840127 -3.876054,-3.840127 -0.221211,0 -0.379493,0.42588 -2.516445,6.770834 -2.812435,8.350572 -4.033308,13.018562 -4.063879,15.538194 -0.02083,1.716946 0.203934,2.586062 0.848724,3.281802 0.513805,0.554405 1.126565,0.577498 1.597721,0.06021 z M 34.522518,13.72242 c 0.513175,-0.178456 0.970283,-0.421503 1.015795,-0.540104 0.121049,-0.315448 -1.436015,-3.001546 -2.336897,-4.0313889 -1.010853,-1.1555559 -1.512667,-1.3980213 -2.893389,-1.3980213 -1.974512,0 -3.721254,0.5248059 -4.878278,1.4656705 l -0.520833,0.4235295 1.068968,1.0085252 c 0.587933,0.554688 1.816405,1.921631 2.729938,3.03765 l 1.66097,2.029125 1.610341,-0.83526 c 0.885685,-0.459393 2.03021,-0.98127 2.543385,-1.159726 z m 5.298236,0.264296 c 0.678696,-0.199877 1.285436,-0.41472 1.348307,-0.477431 0.18952,-0.18903 -0.51389,-2.635948 -1.130744,-3.9334626 -0.709948,-1.493333 -1.486473,-2.4717486 -1.697533,-2.13888 -0.165269,0.26065 -0.201049,5.9260596 -0.04119,6.5225606 0.126589,0.472365 0.01632,0.470392 1.52116,0.02721 z m 11.216634,-2.543358 c 0,-0.190283 -0.665191,-1.315375 -1.346884,-2.2780955 -0.880472,-1.2434456 -1.60968,-1.6678691 -3.346029,-1.9475 -0.904167,-0.1456116 -2.999165,0.00963 -3.22879,0.239254 -0.03477,0.034772 0.249012,0.8917882 0.63063,1.9044811 0.381618,1.0126924 0.693851,1.9186344 0.693851,2.0132024 0,0.10821 1.222672,0.164266 3.298611,0.151231 1.814236,-0.01139 3.298611,-0.04855 3.298611,-0.08257 z"
     id="path4228"
     inkscape:connector-curvature="0"
     sodipodi:nodetypes="cscssscsscsscssssssccsssccsssscsccscsssssssscsccsssssssssssscsssscssssssscsssssscscsscscccscccssssscsscssscscssssssssssssssscssscsscsssssssscssssssssssscsscssscssssssscssss" /><g
     id="g4219"><path
       inkscape:export-ydpi="90"
       inkscape:export-xdpi="90"
       style="fill:#ffd900;fill-opacity:1"
       d="m 93.4,50.9 c -0.6,-3.8 -2.8,-6.9 -6,-7.2 -0.2,0 -0.3,0 -0.5,0 -0.4,0 -0.7,0 -1.1,0.1 L 66.6,47.7 C 60.3,49 55.7,55.1 55.7,62.2 l 0,28.1 c 0,0.2 0,0.4 0,0.5 0,0 0,0.1 0,0.1 0,0.1 0,0.3 0.1,0.4 0,0 0,0.1 0,0.1 0,0.1 0.1,0.3 0.1,0.4 0,0 0,0 0,0 0.1,0.2 0.1,0.3 0.2,0.5 l 0,0 0,0 c 0.7,1.6 2.1,2.6 3.8,2.6 0.2,0 0.5,0 0.8,-0.1 l 27.7,-7.7 c 2,-0.4 3.5,-2.3 3.5,-4.6 -0.1,0.1 3.6,-18 1.5,-31.6 z"
       id="path3339"
       inkscape:connector-curvature="0" /><path
       inkscape:export-ydpi="90"
       inkscape:export-xdpi="90"
       style="fill:#ffd900;fill-opacity:1"
       d="m 25.7,12.9 c 2.7,3.3 4.3,5.2 4.3,5.2 0,0 3.1,-2.7 8.3,-3.7 0,0 -3.1,-9.1 -7.5,-8.9 -4.4,0.2 -6.7,1 -9.5,5.4 0.1,0 1.7,-1.3 4.4,2 z"
       id="path3341"
       inkscape:connector-curvature="0" /><path
       inkscape:export-ydpi="90"
       inkscape:export-xdpi="90"
       style="fill:#ffd900;fill-opacity:1"
       d="m 20.6,38.1 c 1.1,-5.1 4.6,-15 8,-19.2 0,0 -6.2,-7.9 -8.1,-7.1 0,0 -6.4,16.9 -7.3,24.1 -0.7,7.3 6,9.2 7.4,2.2 z"
       id="path3343"
       inkscape:connector-curvature="0" /><path
       inkscape:export-ydpi="90"
       inkscape:export-xdpi="90"
       style="fill:#ffd900;fill-opacity:1"
       d="m 53.8,13.5 c -1.2,-5.1 -4,-7.3 -4,-7.3 -4.5,-2.8 -9.6,0 -9.6,0 1.2,1.4 3,7.3 3,7.3 4.8,-0.8 10.6,0 10.6,0 z"
       id="path3345"
       inkscape:connector-curvature="0" /><path
       inkscape:export-ydpi="90"
       inkscape:export-xdpi="90"
       style="fill:#ffd900;fill-opacity:1"
       d="m 53.2,62.2 c 0,-8.3 5.4,-15.5 12.9,-17 l 19.2,-3.9 c 0.5,-0.1 1.1,-0.2 1.6,-0.2 l 0,0 c 0.2,0 0.5,0 0.7,0 -0.2,-2.9 -0.5,-5.2 -0.9,-6.6 -0.7,-2 -2.7,-4.2 -5.3,-6.4 -3.5,0.1 -10.8,0.4 -21,1.4 C 48.7,30.7 46.3,36 45.4,39.9 44,46.8 43.5,94 43.5,95 c 0,0 0,0 0,0 0.8,0 4.9,-0.8 10.2,-2 -0.3,-0.8 -0.5,-1.7 -0.5,-2.7 l 0,-28.1 z"
       id="path3349"
       inkscape:connector-curvature="0" /><path
       inkscape:export-ydpi="90"
       inkscape:export-xdpi="90"
       style="fill:#ffd900;fill-opacity:1"
       d="m 35,82.5 0,0 0,-26.9 0,-0.1 C 31.3,54.1 24.2,50 22.1,48.8 c -3.6,2 -4.4,3.7 -4.6,4 -0.1,0.9 -0.3,2.2 -0.4,3.6 -2,-6.1 0.2,-13 0.2,-13 -1.8,0.3 -3.4,-0.8 -3.4,-0.8 0,0 -1.2,6.3 -8,8.3 l 2,3.5 c 0,0 3.5,-2.1 5.7,-5.9 0.2,6.7 2.3,10.8 3.1,12.1 -0.4,5.3 -0.5,11.3 0.7,13.8 1.6,3.5 5.755243,6.911049 9.12266,8.888388 L 26.9,83.5 c 1.3,0.7 2.444757,1.034272 3.42266,1.3 0.387825,0.08839 0.47734,0.1 0.67734,0.1 2.1,-0.1 3.5,-1.8 4,-2.4 z"
       id="path3351"
       inkscape:connector-curvature="0"
       sodipodi:nodetypes="ccccccccccccccccccc" /><path
       inkscape:export-ydpi="90"
       inkscape:export-xdpi="90"
       style="fill:#ffd900;fill-opacity:1"
       d="M 60.2,27.2 C 68.1,26.4 74.2,26 78.3,25.9 74.6,23.4 70.5,21 67.2,19.3 63,17.1 58.4,15.8 53.7,15.4 45.2,14.7 32.3,15.2 28.1,23 25.6,27.6 23.6,36.5 22.4,46.1 l 0.4,0.2 c 0.1,0.1 10.3,6.1 13.8,7.1 l 0.9,0.3 0,29.5 -0.2,0.3 c -0.1,0.1 -2,3.4 -5.5,3.8 3.1,2.4 6.8,5.2 9.3,6.7 0.1,-7.3 0.5,-47.8 2,-54.3 1.5,-7.4 7.1,-11.4 17.1,-12.5 z"
       id="path3353"
       inkscape:connector-curvature="0" /></g><path
     inkscape:connector-curvature="0"
     id="path3347"
     d="m 38.4,7.3 c -0.5,1.9 0,7 0,7 l 2.8,-0.8 C 40.4,8.9 38.4,7.3 38.4,7.3 Z"
     style="fill:#ffd900;fill-opacity:1"
     inkscape:export-xdpi="90"
     inkscape:export-ydpi="90" /><text
     xml:space="preserve"
     style="font-style:normal;font-weight:normal;font-size:40px;line-height:125%;font-family:sans-serif;letter-spacing:0px;word-spacing:0px;fill:#005595;fill-opacity:1;stroke:none;stroke-width:1px;stroke-linecap:butt;stroke-linejoin:miter;stroke-opacity:1"
     x="71.274986"
     y="91.695709"
     id="text4169"
     sodipodi:linespacing="125%"
     transform="matrix(0.98850637,-0.1511793,-0.06105475,1.0209648,0,0)"><tspan
       sodipodi:role="line"
       id="tspan4171"
       x="71.274986"
       y="91.695709"
       style="font-style:normal;font-variant:normal;font-weight:normal;font-stretch:normal;font-family:'Terminal Greek 737 (437G)';-inkscape-font-specification:'Terminal Greek 737 (437G)'">s</tspan></text>
</svg>